<!-- Generated by IcoMoon.io -->
<svg version="1.1" xmlns="http://www.w3.org/2000/svg" width="32" height="32" viewBox="0 0 32 32">
<title>icon-calendar</title>
<path fill="#7e88c3" opacity="0.5" d="M28 4h-1.334v-2.666c0 0 0 0 0 0 0-0.736-0.596-1.333-1.332-1.334h-1.334c-0.737 0-1.334 0.597-1.334 1.334v0 2.666h-13.332v-2.666c0-0.737-0.597-1.334-1.334-1.334v0h-1.334c-0.736 0.001-1.332 0.598-1.332 1.334 0 0 0 0 0 0v0 2.666h-1.334c-2.206 0-4 1.794-4 4v20c0 2.206 1.794 4 4 4h24c2.206 0 4-1.794 4-4v-20c0-2.206-1.794-4-4-4zM29.334 28c0 0.734-0.6 1.334-1.334 1.334h-24c-0.736-0.001-1.333-0.598-1.334-1.334v-14.614h26.668v14.614z"></path>
</svg>
