<!-- Generated by IcoMoon.io -->
<svg version="1.1" xmlns="http://www.w3.org/2000/svg" width="32" height="32" viewBox="0 0 32 32">
<title>icon-sun</title>
<path fill="#858bb2" d="M15.707 25.888c0.785 0 1.432 0.589 1.524 1.349l0.001 0.007 0.011 0.179v2.456c-0.003 0.846-0.69 1.53-1.536 1.53-0.783 0-1.429-0.586-1.524-1.343l-0.001-0.008-0.010-0.179v-2.456c0-0.848 0.688-1.536 1.536-1.536zM8.507 22.907c0.555 0.554 0.597 1.424 0.128 2.026l-0.128 0.144-1.736 1.739c-0.278 0.276-0.66 0.446-1.082 0.446-0.848 0-1.536-0.688-1.536-1.536 0-0.354 0.12-0.681 0.322-0.941l-0.003 0.003 0.128-0.144 1.738-1.738c0.278-0.278 0.662-0.45 1.086-0.45s0.808 0.172 1.086 0.45v0zM25.077 22.907l1.738 1.738c0.278 0.278 0.45 0.662 0.45 1.086 0 0.848-0.687 1.535-1.535 1.535-0.424 0-0.808-0.172-1.086-0.45l-1.736-1.738c-0.278-0.278-0.45-0.662-0.45-1.086 0-0.848 0.687-1.535 1.535-1.535 0.424 0 0.807 0.172 1.085 0.449v0zM15.707 7.84c4.344 0.005 7.863 3.525 7.869 7.868v0.001c-0.005 4.344-3.525 7.863-7.868 7.869h-0.001c-4.343-0.006-7.862-3.526-7.867-7.868v-0.001c0.005-4.343 3.524-7.862 7.867-7.869h0.001zM29.88 14.173c0.015-0.001 0.032-0.001 0.050-0.001 0.848 0 1.536 0.688 1.536 1.536s-0.688 1.536-1.536 1.536c-0.017 0-0.035-0-0.052-0.001l0.003 0h-2.456c-0.848 0-1.536-0.688-1.536-1.536s0.688-1.536 1.536-1.536v0h2.456zM3.992 14.173c0.841 0.010 1.518 0.694 1.518 1.536 0 0.779-0.58 1.422-1.331 1.522l-0.008 0.001-0.179 0.011h-2.456c-0.846-0.003-1.53-0.69-1.53-1.536 0-0.783 0.586-1.429 1.343-1.524l0.008-0.001 0.179-0.010h2.454zM26.814 4.6c0.278 0.278 0.449 0.662 0.449 1.086s-0.172 0.808-0.449 1.086v0l-1.738 1.738c-0.282 0.305-0.683 0.495-1.129 0.495-0.848 0-1.536-0.688-1.536-1.536 0-0.447 0.191-0.849 0.495-1.129l0.001-0.001 1.736-1.738c0.278-0.278 0.662-0.449 1.086-0.449s0.808 0.172 1.086 0.449v0zM6.627 4.472l0.144 0.128 1.738 1.738c0.279 0.278 0.452 0.663 0.452 1.088 0 0.848-0.688 1.536-1.536 1.536-0.358 0-0.687-0.122-0.948-0.327l0.003 0.002-0.144-0.128-1.738-1.738c-0.282-0.278-0.457-0.665-0.457-1.092 0-0.847 0.687-1.534 1.534-1.534 0.36 0 0.691 0.124 0.953 0.332l-0.003-0.002zM15.707 0c0.848 0 1.536 0.688 1.536 1.536v2.456c0 0.848-0.688 1.536-1.536 1.536s-1.536-0.688-1.536-1.536v0-2.456c0-0.848 0.688-1.536 1.536-1.536z"></path>
</svg>
