<!-- Generated by IcoMoon.io -->
<svg version="1.1" xmlns="http://www.w3.org/2000/svg" width="32" height="32" viewBox="0 0 32 32">
<title>icon-moon</title>
<path fill="#7e88c3" d="M31.203 18.147c-0.076-0.018-0.164-0.029-0.254-0.029-0.26 0-0.499 0.088-0.689 0.236l0.003-0.002c-1.034 0.885-2.24 1.605-3.557 2.101l-0.083 0.027c-1.197 0.466-2.582 0.736-4.030 0.736-0.035 0-0.070-0-0.105-0l0.005 0c-0.002 0-0.005 0-0.008 0-3.32 0-6.325-1.345-8.501-3.52l0 0c-2.173-2.176-3.517-5.18-3.517-8.498 0-0.003 0-0.005 0-0.008v0c0-1.392 0.245-2.741 0.656-3.968 0.448-1.307 1.104-2.494 1.962-3.515 0.144-0.177 0.231-0.406 0.231-0.655 0-0.33-0.153-0.624-0.392-0.815l-0.002-0.002c-0.188-0.146-0.427-0.234-0.687-0.234-0.090 0-0.178 0.011-0.262 0.031l0.008-0.002c-3.475 0.941-6.501 3.026-8.669 5.808-2.067 2.684-3.312 6.092-3.312 9.792 0 0.008 0 0.016 0 0.024v-0.001c0 4.459 1.8 8.507 4.744 11.451 2.911 2.93 6.943 4.744 11.398 4.744 0.018 0 0.036-0 0.055-0h-0.003c3.763 0 7.238-1.309 10.019-3.477 2.805-2.218 4.84-5.302 5.704-8.845l0.023-0.11c0.029-0.089 0.046-0.192 0.046-0.299 0-0.474-0.332-0.87-0.776-0.968l-0.007-0.001z"></path>
</svg>
