<!-- Generated by IcoMoon.io -->
<svg version="1.1" xmlns="http://www.w3.org/2000/svg" width="39" height="32" viewBox="0 0 39 32">
<title>illustration-empty</title>
<path fill="#e6e7e8" d="M4.982 13.421l13.606-8.587 13.606 8.587v12.529h-27.211z"></path>
<path fill="#231f20" d="M32.193 26.012h-27.211c-0.035 0-0.063-0.028-0.063-0.063v0-12.528c0-0 0-0.001 0-0.001 0-0.022 0.011-0.041 0.029-0.051l0-0 13.606-8.582c0.009-0.006 0.021-0.009 0.033-0.009s0.024 0.003 0.034 0.010l-0-0 13.611 8.588c0.019 0.011 0.030 0.031 0.030 0.053v12.529c-0.003 0.032-0.030 0.057-0.063 0.057-0.002 0-0.004-0-0.005-0l0 0zM5.041 25.886h27.095v-12.43l-13.549-8.544-13.547 8.544v12.431z"></path>
<path fill="#fff" d="M21.902 10.048c0.452-0.747 0.567-1.654 0.525-2.525-0.033-1.003-0.301-1.937-0.751-2.757l0.016 0.032c-0.19-0.366-0.456-0.669-0.779-0.896l-0.008-0.005c-0.408-0.252-0.687-0.082-1.086-0.15-0.338-0.058-0.691-0.298-1.065-0.36-0.175-0.031-0.377-0.049-0.583-0.049-0.707 0-1.365 0.212-1.913 0.576l0.013-0.008c-1.28 0.865-1.872 2.518-3.195 3.321-1.297 0.783-2.956 0.548-4.411 0.981-0.647 0.197-1.208 0.501-1.693 0.896l0.009-0.007c-0.341 0.263-0.619 0.591-0.816 0.967l-0.008 0.016c-0.342 0.712-0.252 1.561 0 2.313 0.252 0.773 0.678 1.511 1.338 1.99 0.553 0.399 1.232 0.583 1.904 0.704 0.914 0.165 1.86 0.227 2.773 0.029 0.705-0.145 1.322-0.456 1.829-0.891l-0.005 0.005c0.224-0.2 0.348-0.473 0.557-0.672 0.289-0.273 0.739-0.441 1.076-0.65 0.528-0.329 1.057-0.679 1.66-0.835 1.53-0.398 3.689-0.506 4.611-2.023z"></path>
<path fill="#231f20" d="M10.955 15.3c-0.557-0.005-1.099-0.061-1.623-0.163l0.056 0.009c-0.582-0.104-1.327-0.281-1.928-0.712s-1.069-1.133-1.359-2.014c-0.207-0.629-0.378-1.557 0.009-2.355 0.207-0.403 0.49-0.739 0.832-1.002l0.007-0.005c0.481-0.392 1.048-0.7 1.668-0.89l0.035-0.009c0.518-0.143 1.129-0.252 1.756-0.305l0.038-0.003c0.94-0.103 1.829-0.201 2.602-0.668 0.676-0.408 1.168-1.058 1.646-1.686 0.452-0.595 0.921-1.211 1.546-1.636 0.545-0.364 1.216-0.581 1.937-0.581 0.206 0 0.408 0.018 0.604 0.052l-0.021-0.003c0.201 0.042 0.395 0.109 0.58 0.199 0.157 0.073 0.321 0.129 0.49 0.167 0.128 0.018 0.257 0.021 0.386 0.009 0.046-0.007 0.099-0.011 0.154-0.011 0.21 0 0.406 0.060 0.572 0.164l-0.005-0.003c0.34 0.236 0.613 0.545 0.8 0.906l0.006 0.014c0.44 0.795 0.711 1.739 0.742 2.743l0 0.009c0.049 1.032-0.126 1.888-0.534 2.557-0.756 1.236-2.304 1.552-3.672 1.832-0.345 0.070-0.67 0.136-0.974 0.215-0.543 0.14-1.035 0.447-1.512 0.744l-0.126 0.082c-0.126 0.074-0.252 0.144-0.384 0.212-0.26 0.12-0.485 0.265-0.686 0.435l0.004-0.004c-0.091 0.093-0.174 0.195-0.247 0.303l-0.005 0.008c-0.091 0.136-0.192 0.255-0.304 0.362l-0.001 0.001c-0.51 0.442-1.139 0.761-1.831 0.904l-0.026 0.005c-0.35 0.076-0.752 0.12-1.165 0.12-0.023 0-0.046-0-0.068-0l0.003 0zM18.18 3.401c-0.667-0.004-1.32 0.192-1.875 0.561-0.611 0.412-1.072 1.020-1.52 1.608-0.484 0.637-0.984 1.297-1.678 1.715-0.795 0.481-1.738 0.584-2.647 0.685-0.598 0.048-1.191 0.149-1.772 0.302-0.639 0.196-1.194 0.497-1.672 0.888l0.009-0.007c-0.336 0.257-0.608 0.578-0.802 0.947l-0.007 0.016c-0.365 0.763-0.203 1.656 0 2.266 0.282 0.867 0.737 1.545 1.316 1.961s1.312 0.592 1.882 0.695c1.061 0.19 1.958 0.2 2.746 0.029 0.698-0.143 1.309-0.453 1.81-0.885l-0.005 0.004c0.107-0.102 0.202-0.214 0.284-0.336l0.005-0.007c0.083-0.122 0.171-0.229 0.269-0.327l-0 0c0.205-0.175 0.438-0.325 0.689-0.443l0.019-0.008c0.135-0.069 0.261-0.135 0.378-0.206l0.134-0.083c0.483-0.301 0.982-0.613 1.543-0.755 0.308-0.079 0.63-0.146 0.979-0.217 1.347-0.273 2.872-0.584 3.598-1.778v0c0.391-0.644 0.564-1.483 0.517-2.493-0.030-0.994-0.296-1.92-0.743-2.732l0.016 0.031c-0.184-0.359-0.443-0.655-0.759-0.876l-0.008-0.005c-0.142-0.087-0.313-0.139-0.497-0.139-0.056 0-0.11 0.005-0.163 0.014l0.006-0.001c-0.137 0.012-0.276 0.008-0.412-0.011-0.195-0.043-0.367-0.104-0.529-0.181l0.014 0.006c-0.158-0.077-0.341-0.141-0.533-0.182l-0.016-0.003c-0.172-0.032-0.37-0.051-0.572-0.053h-0.001z"></path>
<path fill="#fff" d="M27.044 8.814l-0.663 2.492 1.597 0.284 0.91-3.33s-1.419-1.085-1.638-1.093c-0.219-0.008-0.205 1.645-0.205 1.645z"></path>
<path fill="#231f20" d="M27.978 11.654h-0.011l-1.594-0.281c-0.029-0.005-0.052-0.030-0.052-0.061 0-0.006 0.001-0.012 0.003-0.018l-0 0 0.658-2.481c0-0.267 0-1.491 0.187-1.671 0.020-0.021 0.048-0.034 0.079-0.034 0.002 0 0.003 0 0.005 0h-0c0.226 0.008 1.433 0.923 1.674 1.105 0.015 0.012 0.025 0.030 0.025 0.051 0 0.006-0.001 0.011-0.002 0.017l0-0-0.911 3.33c-0.008 0.025-0.031 0.042-0.058 0.043h-0zM26.465 11.26l1.469 0.259 0.882-3.234c-0.682-0.519-1.445-1.050-1.566-1.054-0.090 0.067-0.145 0.881-0.14 1.586 0 0.002 0.001 0.005 0.001 0.008s-0 0.006-0.001 0.008l0-0-0.645 2.426z"></path>
<path fill="#fff" d="M25.318 7.184s0.226 0.504 0.551 0.585c0.325 0.082 1.032-0.267 1.114-0.222s1.947 1.44 2.128 1.482c0.182 0.042 0.516-0.398 0.658-0.92 0 0-1.815-1.236-1.933-1.367s-0.26-0.914-0.436-1.201l-2.082 1.643z"></path>
<path fill="#231f20" d="M29.131 9.096c-0.006 0.001-0.013 0.001-0.020 0.001s-0.014-0-0.020-0.001l0.001 0c-0.113-0.028-0.708-0.45-1.698-1.171-0.223-0.164-0.417-0.303-0.441-0.318s-0.151 0.045-0.252 0.080c-0.264 0.087-0.624 0.206-0.843 0.149-0.35-0.093-0.582-0.601-0.592-0.622-0.004-0.008-0.006-0.017-0.006-0.026 0-0.019 0.009-0.037 0.024-0.048l0-0 2.078-1.636c0.011-0.008 0.025-0.013 0.040-0.013 0.004 0 0.007 0 0.011 0.001l-0-0c0.018 0.004 0.033 0.014 0.043 0.029 0.101 0.2 0.187 0.434 0.247 0.678l0.005 0.023c0.038 0.17 0.096 0.334 0.174 0.49 0.083 0.092 1.195 0.862 1.922 1.358 0.023 0.015 0.033 0.042 0.025 0.068-0.13 0.458-0.451 0.959-0.697 0.959zM26.962 7.481c0.001-0 0.003-0 0.004-0 0.017 0 0.034 0.004 0.048 0.012l-0.001-0c0.026 0.014 0.159 0.111 0.455 0.326 0.504 0.364 1.534 1.119 1.652 1.151s0.418-0.316 0.571-0.833c-0.306-0.208-1.793-1.225-1.907-1.352-0.064-0.070-0.118-0.252-0.203-0.539-0.062-0.239-0.133-0.442-0.216-0.637l0.011 0.029-1.98 1.565c0.062 0.118 0.252 0.444 0.488 0.504 0.184 0.048 0.538-0.069 0.771-0.146 0.089-0.037 0.192-0.064 0.3-0.077l0.006-0.001z"></path>
<path fill="#231f20" d="M27.302 6.011c-0.003 0.023-0.004 0.049-0.004 0.075 0 0.114 0.028 0.221 0.078 0.315l-0.002-0.004c0.102 0.183 0.554 0.426 0.554 0.426l0.315-0.629-0.618-0.446-0.324 0.263z"></path>
<path fill="#231f20" d="M27.928 6.886c-0 0-0 0-0 0-0.011 0-0.020-0.003-0.029-0.008l0 0c-0.049-0.025-0.473-0.258-0.58-0.451-0.053-0.099-0.084-0.217-0.084-0.342 0-0.029 0.002-0.058 0.005-0.087l-0 0.003c0.002-0.016 0.010-0.029 0.021-0.039l0-0 0.324-0.267c0.011-0.008 0.024-0.014 0.039-0.014s0.028 0.005 0.039 0.014l-0-0 0.616 0.446c0.025 0.018 0.033 0.051 0.020 0.078l-0.315 0.629c-0.008 0.015-0.021 0.026-0.037 0.031l-0 0c-0.006 0.003-0.012 0.005-0.019 0.005h-0zM27.363 6.045c-0.001 0.013-0.001 0.027-0.001 0.042 0 0.102 0.025 0.199 0.070 0.283l-0.002-0.003c0.066 0.126 0.326 0.286 0.473 0.37l0.261-0.526-0.534-0.386-0.266 0.22z"></path>
<path fill="#fff" d="M29.278 7.776s0.165-0.52-0.126-0.556c-0.008-0.141-0.124-0.252-0.266-0.252-0.050 0-0.098 0.014-0.138 0.038l0.001-0.001s-0.093-0.387-0.398-0.308-0.547 0.807-0.504 0.991c0.043 0.184 0.28 0.072 0.399-0.101 0 0-0.155 0.287-0.052 0.363 0.151 0.111 0.31-0.086 0.439-0.229 0 0-0.19 0.336 0.090 0.366 0.215 0.024 0.416-0.411 0.416-0.411l0.14 0.1z"></path>
<path fill="#231f20" d="M28.734 8.151h-0.024c-0.115 0-0.208-0.093-0.209-0.208-0.104 0.092-0.226 0.15-0.35 0.058-0.040-0.036-0.064-0.087-0.064-0.144 0-0.019 0.003-0.038 0.008-0.055l-0 0.001c-0.054 0.034-0.119 0.048-0.183 0.039-0.069-0.014-0.122-0.069-0.132-0.139l-0-0.001c-0.047-0.213 0.204-0.976 0.552-1.065 0.028-0.009 0.060-0.014 0.093-0.014 0.062 0 0.119 0.017 0.168 0.047l-0.001-0.001c0.090 0.061 0.157 0.149 0.194 0.252 0.032-0.012 0.070-0.019 0.108-0.019 0.052 0 0.102 0.013 0.145 0.035l-0.002-0.001c0.080 0.052 0.138 0.132 0.161 0.225l0.001 0.003c0.055 0.016 0.102 0.051 0.132 0.099 0.112 0.175 0.015 0.494 0 0.53-0.006 0.019-0.020 0.034-0.039 0.040l-0 0c-0.006 0.002-0.013 0.003-0.021 0.003-0.013 0-0.026-0.004-0.036-0.011l0 0-0.086-0.059c-0.060 0.128-0.222 0.383-0.415 0.383zM28.627 7.657c0 0 0.001 0 0.001 0 0.014 0 0.027 0.005 0.037 0.013l-0-0c0.025 0.019 0.033 0.054 0.018 0.082-0.028 0.049-0.076 0.17-0.045 0.229 0 0.009 0.018 0.037 0.087 0.044 0.126 0.014 0.292-0.252 0.352-0.378 0.008-0.016 0.022-0.029 0.040-0.034l0-0c0.005-0.002 0.011-0.003 0.017-0.003 0.013 0 0.026 0.004 0.035 0.011l-0-0 0.071 0.049c0.015-0.046 0.023-0.099 0.023-0.154 0-0.067-0.013-0.131-0.035-0.191l0.001 0.004c-0.019-0.029-0.051-0.048-0.087-0.050l-0-0c-0.028-0.004-0.050-0.026-0.054-0.054l-0-0c-0.012-0.074-0.051-0.137-0.107-0.179l-0.001-0c-0.026-0.011-0.057-0.017-0.088-0.017-0.044 0-0.085 0.012-0.121 0.033l0.001-0.001c-0.008 0.004-0.017 0.006-0.026 0.006s-0.019-0.002-0.027-0.006l0 0c-0.017-0.008-0.029-0.023-0.034-0.041l-0-0c-0.025-0.1-0.081-0.184-0.158-0.243l-0.001-0.001c-0.029-0.017-0.064-0.027-0.101-0.027-0.022 0-0.043 0.003-0.063 0.010l0.001-0c-0.268 0.068-0.494 0.755-0.46 0.915 0.009 0.039 0.025 0.043 0.034 0.044 0.108-0.015 0.198-0.078 0.251-0.166l0.001-0.002c0.019-0.027 0.056-0.035 0.084-0.018 0.018 0.012 0.029 0.031 0.029 0.054 0 0.011-0.003 0.021-0.007 0.029l0-0c-0.064 0.126-0.1 0.262-0.070 0.283 0.088 0.064 0.193-0.039 0.329-0.19l0.027-0.030c0.012-0.012 0.028-0.020 0.047-0.020v0z"></path>
<path fill="#fff" d="M27.931 6.216s-0.173-0.3-0.354-0.037c-0.181 0.263-0.4 0.755-0.097 0.808s0.529-0.511 0.451-0.772z"></path>
<path fill="#231f20" d="M27.519 7.052c-0.007 0.001-0.016 0.001-0.025 0.001s-0.017-0-0.026-0.001l0.001 0c-0.082-0.010-0.149-0.063-0.181-0.135l-0.001-0.001c-0.088-0.21 0.107-0.584 0.237-0.77 0.044-0.079 0.125-0.132 0.219-0.136h0c0.139 0.006 0.231 0.16 0.241 0.176l0.006 0.014c0.008 0.043 0.012 0.093 0.012 0.144 0 0.217-0.078 0.415-0.208 0.569l0.001-0.001c-0.066 0.082-0.165 0.136-0.276 0.141l-0.001 0zM27.736 6.132c-0.042 0-0.082 0.044-0.107 0.081-0.152 0.22-0.277 0.524-0.224 0.651 0.015 0.034 0.048 0.058 0.086 0.060 0.005 0 0.010 0 0.015 0 0.080 0 0.152-0.039 0.196-0.099l0-0.001c0.11-0.131 0.176-0.302 0.176-0.488 0-0.034-0.002-0.068-0.007-0.102l0 0.004c-0.020-0.033-0.077-0.104-0.134-0.107h-0.003z"></path>
<path fill="#fff" d="M27.042 8.983s-0.199-0.95-0.218-1.12c-0.031-0.288 0.037-0.739 0.29-0.81s0.833-0.137 0.737 0.117c-0.087 0.232-0.595 0.276-0.595 0.276s0.35 0.352 0.297 0.704z"></path>
<path fill="#231f20" d="M27.042 9.046c-0 0-0 0-0 0-0.030 0-0.055-0.021-0.061-0.049l-0-0c-0.008-0.039-0.199-0.957-0.218-1.133-0.033-0.295 0.030-0.792 0.335-0.881 0.159-0.044 0.644-0.135 0.786 0.020 0.044 0.049 0.054 0.119 0.026 0.179-0.072 0.194-0.362 0.271-0.529 0.301 0.106 0.134 0.276 0.397 0.234 0.666-0.005 0.031-0.031 0.054-0.063 0.054-0.035 0-0.064-0.029-0.064-0.064 0-0.003 0-0.007 0.001-0.010l-0 0c0.048-0.316-0.276-0.647-0.278-0.65-0.012-0.012-0.019-0.028-0.019-0.046 0-0.008 0.001-0.015 0.004-0.021l-0 0c0.009-0.022 0.029-0.038 0.054-0.040h0c0.126-0.011 0.481-0.076 0.541-0.235 0.014-0.034 0-0.044 0-0.049-0.067-0.074-0.416-0.052-0.66 0.015-0.205 0.057-0.273 0.467-0.243 0.742 0.019 0.165 0.216 1.107 0.217 1.115 0.001 0.004 0.002 0.009 0.002 0.014 0 0.030-0.022 0.055-0.050 0.061l-0 0-0.013 0.011z"></path>
<path fill="#fff" d="M30.764 5.379s-2.1-0.208-2.957 0.288c-0.235 0.141-0.437 0.283-0.628 0.436l0.011-0.008c-0.465 0.364-0.902 0.777-1.243 1.007-0.675 0.453-1.328 0.545-1.773-0.176-0.378-0.616-0.157-0.908 0.354-1.455 0.252-0.271 0.786-0.718 1.246-1.212 0.265-0.268 0.492-0.575 0.67-0.91l0.010-0.021c0.388-0.816 0.278-2.066 0.278-2.066l4.030 4.118z"></path>
<path fill="#231f20" d="M25.003 7.516c-0.002 0-0.005 0-0.008 0-0.069 0-0.136-0.008-0.2-0.023l0.006 0.001c-0.296-0.078-0.538-0.271-0.678-0.528l-0.003-0.006c-0.407-0.66-0.156-0.978 0.36-1.532 0.108-0.116 0.265-0.262 0.446-0.429 0.252-0.234 0.536-0.504 0.802-0.783 0.261-0.263 0.484-0.564 0.659-0.895l0.010-0.021c0.378-0.793 0.274-2.027 0.272-2.039-0-0.002-0-0.003-0-0.005 0-0.025 0.015-0.047 0.036-0.058l0-0c0.008-0.004 0.017-0.006 0.026-0.006 0.018 0 0.034 0.008 0.045 0.020l0 0 4.033 4.122c0.011 0.011 0.017 0.027 0.017 0.043 0 0.010-0.002 0.019-0.006 0.028l0-0c-0.011 0.022-0.033 0.037-0.058 0.037-0.002 0-0.003-0-0.005-0h0c-0.021 0-2.090-0.2-2.919 0.282-0.233 0.139-0.432 0.279-0.62 0.431l0.010-0.008c-0.19 0.15-0.378 0.306-0.553 0.456-0.207 0.184-0.433 0.365-0.668 0.534l-0.025 0.017c-0.365 0.242-0.693 0.363-0.982 0.363zM26.807 1.421c0.015 0.378 0.014 1.282-0.294 1.935-0.192 0.363-0.423 0.674-0.692 0.947l0-0c-0.268 0.288-0.555 0.554-0.808 0.789-0.179 0.166-0.335 0.311-0.44 0.423-0.504 0.535-0.706 0.797-0.345 1.385 0.126 0.233 0.338 0.406 0.593 0.477l0.007 0.002c0.3 0.065 0.664-0.044 1.084-0.325 0.256-0.182 0.478-0.36 0.69-0.549l-0.008 0.007c0.18-0.151 0.365-0.308 0.557-0.458 0.184-0.148 0.39-0.291 0.605-0.42l0.025-0.014c0.73-0.424 2.302-0.351 2.824-0.312l-3.799-3.886z"></path>
<path fill="#231f20" d="M27.302 6.011c-0.465 0.364-1.027 0.846-1.355 1.090-0.748 0.559-1.222 0.618-1.711-0.073-0.504-0.71-0.219-1.007 0.292-1.556 0.252-0.271 0.786-0.718 1.246-1.212 0 0 0.029 0.515 0.542 1.143 0.247 0.299 0.586 0.515 0.974 0.606l0.012 0.002z"></path>
<path fill="#231f20" d="M24.998 7.596c-0.002 0-0.003 0-0.005 0-0.039 0-0.077-0.003-0.115-0.009l0.004 0.001c-0.252-0.039-0.474-0.205-0.698-0.523-0.531-0.749-0.22-1.080 0.291-1.629 0.115-0.126 0.271-0.268 0.452-0.436 0.252-0.234 0.536-0.504 0.802-0.783 0.011-0.012 0.027-0.020 0.045-0.020 0.008 0 0.015 0.001 0.022 0.004l-0-0c0.024 0.008 0.040 0.030 0.042 0.055 0 0 0.037 0.504 0.528 1.107 0.239 0.288 0.564 0.496 0.936 0.584l0.012 0.002c0.024 0.005 0.044 0.023 0.050 0.046l0 0c0.001 0.004 0.001 0.009 0.001 0.014 0 0.021-0.009 0.039-0.024 0.052l-0 0c-0.214 0.167-0.447 0.359-0.674 0.544-0.26 0.213-0.504 0.414-0.682 0.546-0.402 0.303-0.717 0.444-0.987 0.444zM25.732 4.397c-0.241 0.252-0.493 0.486-0.718 0.695-0.179 0.166-0.335 0.311-0.44 0.423-0.504 0.542-0.756 0.811-0.286 1.477 0.203 0.287 0.398 0.437 0.614 0.471 0.261 0.040 0.571-0.086 1.008-0.412 0.175-0.126 0.42-0.331 0.678-0.543 0.192-0.157 0.388-0.319 0.575-0.467-0.361-0.113-0.665-0.322-0.892-0.596l-0.003-0.003c-0.249-0.289-0.435-0.641-0.532-1.027l-0.004-0.017z"></path>
<path fill="#7c5dfa" d="M31.346 5.201c-0.47 0.422-1.512 0.071-2.527-0.787-0.513-0.435-0.958-0.928-1.33-1.474l-0.016-0.025c-0.756-1.11-0.992-2.186-0.518-2.61 0.585-0.525 2.044 0.145 3.258 1.497s1.72 2.873 1.133 3.399z"></path>
<path fill="#231f20" d="M27.484 0.128c0.715 0 1.793 0.637 2.726 1.676 1.215 1.352 1.724 2.873 1.134 3.399-0.133 0.112-0.306 0.18-0.496 0.18-0.013 0-0.025-0-0.038-0.001l0.002 0c-0.533 0-1.268-0.354-1.995-0.966-0.264-0.224-0.503-0.456-0.725-0.703l-0.006-0.007c-0.211-0.236-0.412-0.494-0.596-0.765l-0.016-0.026c-0.756-1.11-0.992-2.186-0.518-2.61 0.133-0.111 0.306-0.178 0.494-0.178 0.012 0 0.024 0 0.035 0.001l-0.002-0zM27.484 0.002c-0.012-0.001-0.025-0.001-0.038-0.001-0.221 0-0.423 0.080-0.579 0.213l0.001-0.001c-0.513 0.46-0.312 1.574 0.498 2.77 0.397 0.581 0.849 1.083 1.358 1.52l0.010 0.009c0.756 0.629 1.512 0.994 2.076 0.994 0.011 0 0.024 0.001 0.038 0.001 0.224 0 0.428-0.082 0.585-0.218l-0.001 0.001c0.324-0.29 0.378-0.831 0.142-1.523-0.301-0.796-0.732-1.478-1.272-2.057l0.003 0.004c-0.94-1.038-2.044-1.711-2.82-1.711z"></path>
<path fill="#fff" d="M29.657 3.367l-0.838 1.048c-0.513-0.435-0.958-0.928-1.33-1.474l-0.016-0.025 1.212-0.744 0.972 1.196z"></path>
<path fill="#231f20" d="M29.447 2.546c0.27 0.329 0.365 0.698 0.212 0.823s-0.496-0.039-0.767-0.368c-0.27-0.329-0.365-0.698-0.212-0.823s0.496 0.039 0.767 0.368z"></path>
<path fill="#231f20" d="M29.529 3.47c-0.198 0-0.465-0.16-0.688-0.432-0.123-0.143-0.218-0.314-0.275-0.501l-0.003-0.010c-0.047-0.181-0.020-0.324 0.074-0.4s0.238-0.076 0.407 0c0.177 0.096 0.325 0.222 0.442 0.373l0.002 0.003c0.298 0.361 0.387 0.762 0.204 0.913-0.047 0.036-0.106 0.055-0.165 0.054zM28.809 2.196c-0.002-0-0.005-0-0.008-0-0.032 0-0.061 0.010-0.085 0.028l0-0c-0.053 0.044-0.064 0.144-0.032 0.272 0.054 0.179 0.14 0.334 0.253 0.465l-0.001-0.002c0.265 0.322 0.57 0.448 0.678 0.359s0.044-0.413-0.22-0.735c-0.111-0.139-0.247-0.252-0.403-0.334l-0.007-0.003c-0.051-0.027-0.111-0.045-0.175-0.049l-0.001-0zM28.627 7.783c-0 0-0 0-0 0-0.012 0-0.022-0.003-0.031-0.009l0 0c-0.019-0.011-0.032-0.031-0.032-0.054 0-0.012 0.003-0.023 0.009-0.032l-0 0c0.081-0.132 0.177-0.245 0.286-0.342l0.002-0.001c0.012-0.012 0.028-0.020 0.046-0.020 0.035 0 0.063 0.028 0.063 0.063 0 0.022-0.011 0.041-0.028 0.053l-0 0c-0.096 0.091-0.18 0.193-0.248 0.306l-0.004 0.006c-0.012 0.019-0.032 0.031-0.055 0.031-0.002 0-0.005-0-0.007-0l0 0zM28.24 7.65h-0.010c-0.029-0.006-0.050-0.031-0.050-0.062 0-0.004 0-0.009 0.001-0.013l-0 0c0.048-0.185 0.155-0.339 0.299-0.447l0.002-0.002c0.010-0.007 0.023-0.012 0.037-0.012 0.035 0 0.063 0.028 0.063 0.063 0 0.020-0.009 0.038-0.024 0.049l-0 0c-0.121 0.091-0.21 0.219-0.251 0.366l-0.001 0.005c-0.007 0.029-0.032 0.050-0.063 0.050-0.001 0-0.002-0-0.003-0h0zM29.132 7.739c-0.034-0-0.062-0.028-0.062-0.063 0-0.014 0.004-0.026 0.012-0.037l-0 0 0.086-0.126c0.012-0.016 0.031-0.026 0.052-0.026 0.013 0 0.026 0.004 0.036 0.011l-0-0c0.016 0.012 0.026 0.031 0.026 0.052 0 0.013-0.004 0.026-0.011 0.036l0-0-0.087 0.126c-0.011 0.016-0.029 0.027-0.050 0.027-0.001 0-0.001 0-0.002-0h0z"></path>
<path fill="#fff" d="M25.155 7.468c-0 0-0 0-0 0-0.014 0-0.027-0.005-0.038-0.013l0 0c-0.557-0.423-0.902-0.937-0.97-1.445v-0.014c-0.002-0.005-0.003-0.012-0.003-0.018 0-0.023 0.012-0.043 0.030-0.054l0-0c0.010-0.006 0.021-0.010 0.034-0.010 0.022 0 0.042 0.012 0.053 0.030l0 0c0.007 0.015 0.012 0.032 0.012 0.049 0.064 0.476 0.391 0.959 0.923 1.361 0.015 0.012 0.025 0.030 0.025 0.050 0 0.035-0.028 0.063-0.063 0.063-0 0-0.001 0-0.002-0h-0.003zM24.843 5.459c-0.018-0-0.034-0.008-0.045-0.021l-0-0c-0.011-0.011-0.019-0.027-0.019-0.044s0.007-0.033 0.019-0.044v0l0.678-0.629c0.011-0.012 0.027-0.019 0.044-0.019s0.033 0.007 0.044 0.019l0 0c0.011 0.011 0.018 0.027 0.018 0.044s-0.007 0.033-0.018 0.044v0l-0.678 0.63c-0.010 0.012-0.026 0.020-0.043 0.021h-0zM24.936 5.61c-0.018-0-0.035-0.008-0.047-0.020v0c-0.011-0.012-0.018-0.027-0.018-0.045s0.007-0.033 0.018-0.045v0l0.678-0.629c0.011-0.011 0.027-0.018 0.044-0.018 0.035 0 0.063 0.028 0.063 0.062v0c0 0 0 0 0 0 0 0.017-0.007 0.033-0.019 0.045v0l-0.677 0.629c-0.011 0.011-0.026 0.019-0.043 0.020h-0zM25.044 5.784c-0 0-0.001 0-0.002 0-0.018 0-0.033-0.008-0.044-0.020l-0-0c-0.011-0.011-0.018-0.027-0.018-0.044s0.007-0.033 0.018-0.044v0l0.678-0.629c0.011-0.012 0.027-0.019 0.044-0.019s0.033 0.007 0.044 0.019l0 0c0.011 0.011 0.018 0.027 0.018 0.044s-0.007 0.033-0.018 0.044v0l-0.678 0.629c-0.011 0.012-0.026 0.020-0.043 0.020h-0z"></path>
<path fill="#7c5dfa" d="M13.828 15.494l-0.316 6.977s4.316 0.052 6.799-0.984c0.24-0.78 0.49-1.426 0.778-2.051l-0.042 0.101c0.364-0.735 1.928-1.819 1.437-4.634 0 0 3.685 2.329 4.723 1.259s1.558-6.068 1.558-6.068l-2.158-0.692-0.98 3.082s-6.218-3.005-7.668-3.385c-0.538-0.141-2.211 0.748-4.127 1.978z"></path>
<path fill="#231f20" d="M17.825 11.19s0.999 3.102 1.171 4.415c0.172 1.313 0.197 3.484 0.197 3.484s1.581-4.839 1.386-7.828l-2.754-0.070z"></path>
<path fill="#231f20" d="M19.192 19.145h-0.008c-0.027-0.004-0.048-0.027-0.048-0.054v-0c0-0.021-0.028-2.183-0.196-3.477s-1.158-4.375-1.168-4.406c-0.002-0.005-0.002-0.011-0.002-0.016 0-0.031 0.025-0.057 0.057-0.057 0 0 0 0 0 0v0l2.752 0.070c0.029 0 0.053 0.023 0.054 0.052 0.195 2.965-1.371 7.805-1.386 7.849-0.007 0.023-0.028 0.039-0.053 0.039-0 0-0.001 0-0.001 0h0zM17.902 11.248c0.153 0.481 0.994 3.16 1.149 4.35 0.126 0.99 0.175 2.481 0.19 3.147 0.344-1.133 1.43-4.931 1.284-7.428l-2.624-0.069zM12.79 26.175h11.91l-4.387-4.688-6.799 0.984s-0.814 1.84-0.737 3.132c0.005 0.152 0.009 0.347 0.013 0.572z"></path>
<path fill="#231f20" d="M24.701 26.238h-11.91c-0 0-0.001 0-0.001 0-0.034 0-0.062-0.028-0.062-0.062v-0c0-0.212-0.008-0.414-0.016-0.569-0.077-1.293 0.708-3.086 0.742-3.162 0.009-0.019 0.027-0.033 0.047-0.036l0-0 6.805-0.984c0.002-0 0.005-0 0.008-0 0.019 0 0.036 0.008 0.048 0.021l4.387 4.688c0.010 0.011 0.017 0.026 0.017 0.043 0 0.035-0.028 0.063-0.063 0.063-0 0-0 0-0.001 0h-0.001zM12.854 26.112h11.7l-4.265-4.558-6.732 0.974c-0.107 0.252-0.789 1.902-0.718 3.072 0.006 0.142 0.015 0.322 0.015 0.512z"></path>
<path fill="#fff" d="M20.236 9.522l0.341 1.739s0.009 1.007-1.108 0.91c-0.688-0.066-1.277-0.436-1.64-0.973l-0.005-0.008-0.452-3.036c0.009-0.115 0.014-0.25 0.014-0.386 0-0.448-0.054-0.883-0.155-1.3l0.008 0.038c1.284-0.266 2.114-1.428 2.114-1.428s0.568 0.579 0.8 0.755c0.191 0.132 0.356 0.28 0.501 0.446l0.003 0.003c0.243 0.301 0.315 0.721 0.378 1.093 0.079 0.441 0.118 0.888 0.117 1.336-0.020 0.85-0.916 0.811-0.916 0.811z"></path>
<path fill="#231f20" d="M19.614 12.235h-0.15c-0.707-0.065-1.313-0.446-1.683-0.999l-0.005-0.008c-0.003-0.006-0.006-0.013-0.007-0.021l-0-0s-0.451-3.021-0.452-3.036c-0.002-0.023-0.004-0.049-0.004-0.076s0.001-0.053 0.004-0.079l-0 0.003c0.006-0.089 0.009-0.192 0.009-0.297 0-0.425-0.052-0.837-0.15-1.232l0.007 0.035c-0.001-0.004-0.002-0.009-0.002-0.013 0-0.011 0.003-0.021 0.009-0.030l-0 0c0.008-0.013 0.021-0.022 0.036-0.025l0-0c1.246-0.252 2.069-1.394 2.077-1.405 0.010-0.013 0.025-0.022 0.043-0.024h0c0.017-0.002 0.034 0.005 0.045 0.018 0.006 0 0.568 0.578 0.795 0.748 0.191 0.135 0.356 0.286 0.501 0.455l0.003 0.004c0.252 0.317 0.329 0.755 0.389 1.119 0.080 0.444 0.12 0.895 0.118 1.346 0 0.007 0 0.015 0 0.024 0 0.234-0.097 0.445-0.252 0.595l-0 0c-0.175 0.149-0.402 0.243-0.65 0.252l-0.002 0 0.329 1.671c-0.002 0.289-0.119 0.55-0.308 0.74l0-0c-0.174 0.148-0.402 0.238-0.651 0.238-0.018 0-0.036-0-0.053-0.001l0.002 0zM17.88 11.17c0.36 0.522 0.93 0.877 1.585 0.943l0.009 0.001c0.333 0.028 0.592-0.041 0.773-0.208 0.163-0.167 0.266-0.394 0.272-0.645l0-0.001-0.34-1.727c-0-0.003-0.001-0.007-0.001-0.010 0-0.015 0.005-0.028 0.014-0.039l-0 0c0.010-0.012 0.025-0.020 0.042-0.020 0.001 0 0.003 0 0.004 0h-0c0.006 0 0.012 0 0.019 0 0.236 0 0.453-0.083 0.623-0.222l-0.002 0.001c0.13-0.131 0.211-0.312 0.211-0.511 0-0.009-0-0.017-0-0.026l0 0.001c0-0.006 0-0.013 0-0.020 0-0.462-0.043-0.913-0.124-1.351l0.007 0.045c-0.062-0.361-0.126-0.773-0.365-1.065-0.143-0.165-0.303-0.31-0.479-0.434l-0.008-0.006c-0.196-0.147-0.619-0.568-0.756-0.711-0.18 0.233-0.935 1.133-2.050 1.385 0.113 0.48 0.155 0.974 0.126 1.467-0.002 0.019-0.003 0.041-0.003 0.063s0.001 0.044 0.003 0.066l-0-0.003s-0.005 0.032 0.442 3.027z"></path>
<path fill="#231f20" d="M20.388 10.378s-0.701 0.165-1.245-0.219c-0.544-0.384-0.567-0.871-0.567-0.871s0.862 0.366 1.66 0.234l0.152 0.856z"></path>
<path fill="#231f20" d="M20.022 10.47c-0.010 0-0.022 0-0.034 0-0.327 0-0.63-0.099-0.881-0.27l0.006 0.004c-0.561-0.395-0.586-0.886-0.586-0.914-0-0.001-0-0.003-0-0.004 0-0.018 0.010-0.034 0.024-0.044l0-0c0.009-0.007 0.020-0.011 0.032-0.011 0.008 0 0.015 0.002 0.021 0.005l-0-0c0.009 0 0.858 0.359 1.63 0.23 0.003-0 0.005-0.001 0.008-0.001 0.027 0 0.050 0.020 0.055 0.046l0 0 0.154 0.856c0.001 0.003 0.001 0.007 0.001 0.010 0 0.027-0.019 0.049-0.043 0.054l-0 0c-0.108 0.024-0.233 0.038-0.36 0.038-0.008 0-0.017-0-0.025-0h0.001zM18.652 9.375c0.082 0.31 0.271 0.567 0.523 0.736l0.005 0.003c0.435 0.307 0.982 0.252 1.149 0.22l-0.134-0.749c-0.649 0.090-1.309-0.122-1.544-0.21z"></path>
<path fill="#fff" d="M19.306 6.557s0.72 0.73 0.614 0.9c-0.106 0.17-0.497 0.146-0.497 0.146z"></path>
<path fill="#231f20" d="M19.484 7.66h-0.064c-0.029-0.002-0.052-0.026-0.052-0.055 0-0.001 0-0.003 0-0.004v0c0.002-0.030 0.027-0.053 0.056-0.053 0.001 0 0.002 0 0.003 0h-0c0.1 0 0.378 0 0.446-0.118 0.043-0.070-0.239-0.46-0.606-0.832-0.010-0.010-0.016-0.024-0.016-0.039 0-0.031 0.025-0.056 0.056-0.056 0.016 0 0.030 0.006 0.040 0.017v0c0.226 0.229 0.737 0.782 0.621 0.969-0.096 0.152-0.359 0.171-0.484 0.171z"></path>
<path fill="#231f20" d="M20.416 6.739c0.023 0.099-0.028 0.195-0.114 0.215s-0.174-0.044-0.197-0.143c-0.023-0.099 0.028-0.195 0.114-0.215s0.174 0.044 0.197 0.143z"></path>
<path fill="#231f20" d="M18.81 6.902c0.023 0.099-0.028 0.195-0.114 0.215s-0.174-0.044-0.197-0.143c-0.023-0.099 0.028-0.195 0.114-0.215s0.174 0.044 0.197 0.143z"></path>
<path fill="#fff" d="M17.785 7.151c-0.175-0.283-0.585-0.322-0.871-0.208-0.191 0.070-0.326 0.246-0.334 0.455l-0 0.001c-0.002 0.124 0.020 0.246 0.066 0.361 0.081 0.227 0.196 0.423 0.34 0.593l-0.002-0.003c0.068 0.091 0.157 0.163 0.259 0.21l0.004 0.002c0.134 0.047 0.284 0.008 0.378-0.098z"></path>
<path fill="#231f20" d="M17.365 8.643c-0.048-0-0.094-0.009-0.139-0.027-0.116-0.053-0.212-0.131-0.286-0.226l-0.001-0.002c-0.146-0.173-0.263-0.374-0.343-0.594l-0.004-0.014c-0.044-0.109-0.069-0.235-0.069-0.367 0-0.006 0-0.013 0-0.019v0.001c0.010-0.232 0.16-0.426 0.366-0.502l0.004-0.001c0.315-0.126 0.756-0.076 0.941 0.23 0.004 0.008 0.006 0.016 0.006 0.026 0 0.032-0.026 0.058-0.058 0.058-0.019 0-0.036-0.009-0.046-0.023l-0-0c-0.158-0.252-0.529-0.293-0.8-0.185-0.17 0.061-0.291 0.218-0.3 0.403l-0 0.001c-0 0.004-0 0.009-0 0.013 0 0.117 0.023 0.23 0.064 0.332l-0.002-0.006c0.079 0.22 0.19 0.41 0.33 0.576l-0.002-0.003c0.063 0.084 0.146 0.15 0.241 0.194 0.114 0.040 0.241 0.007 0.32-0.084 0.011-0.014 0.028-0.024 0.047-0.024 0.032 0 0.058 0.026 0.058 0.058 0 0.019-0.009 0.036-0.023 0.046l-0 0c-0.078 0.084-0.187 0.134-0.302 0.138z"></path>
<path fill="#fff" d="M20.012 7.83l-0.843 0.082s0.175 1.302 0.555 1.266c0.379-0.035 0.381-0.976 0.289-1.348z"></path>
<path fill="#231f20" d="M19.707 9.235c-0.397 0-0.565-1.093-0.594-1.316-0.001-0.003-0.001-0.006-0.001-0.009 0-0.012 0.005-0.024 0.012-0.032l-0 0c0.009-0.012 0.022-0.020 0.038-0.021h0l0.844-0.082c0.002-0 0.003-0 0.005-0 0.026 0 0.047 0.018 0.054 0.041l0 0c0.072 0.29 0.096 0.983-0.113 1.276-0.050 0.078-0.132 0.13-0.224 0.141l-0.021 0.001zM19.231 7.962c0.071 0.476 0.252 1.161 0.475 1.161h0.011c0.061-0.009 0.113-0.044 0.143-0.094l0-0.001c0.165-0.233 0.173-0.816 0.107-1.133l-0.737 0.067zM22.121 17.924c-0.031-0-0.057-0.026-0.057-0.057 0-0.011 0.003-0.022 0.009-0.030l-0 0c0.009-0.016 0.935-1.572 0.049-4.813-0.001-0.004-0.002-0.009-0.002-0.014 0-0.027 0.017-0.049 0.042-0.057l0-0c0.005-0.001 0.010-0.002 0.016-0.002 0.026 0 0.048 0.018 0.055 0.042l0 0c0.901 3.293-0.023 4.839-0.063 4.91-0.010 0.013-0.026 0.020-0.043 0.020-0.002 0-0.004-0-0.006-0l0 0z"></path>
<path fill="#fff" d="M4.982 13.421l13.606 9.806 13.606-9.806v16.086h-27.211z"></path>
<path fill="#231f20" d="M32.193 29.57h-27.211c0 0 0 0 0 0-0.035 0-0.063-0.028-0.063-0.063v0-16.086c0-0 0-0.001 0-0.001 0-0.024 0.014-0.044 0.034-0.054l0-0c0.009-0.006 0.021-0.009 0.033-0.009s0.024 0.004 0.033 0.010l-0-0 13.569 9.778 13.568-9.778c0.009-0.006 0.021-0.009 0.033-0.009s0.023 0.004 0.033 0.010l-0-0c0.021 0.010 0.035 0.032 0.035 0.055v16.086c-0.001 0.034-0.028 0.062-0.063 0.063h-0zM5.041 29.444h27.095v-15.9l-13.512 9.733c-0.010 0.008-0.023 0.012-0.037 0.012s-0.027-0.005-0.037-0.012l0 0-13.509-9.733v15.9z"></path>
<path fill="#231f20" d="M4.982 29.57c-0 0-0 0-0 0-0.024 0-0.044-0.013-0.055-0.032l-0-0c-0.005-0.009-0.008-0.019-0.008-0.030 0-0.023 0.013-0.044 0.031-0.055l0-0 12.449-7.114c0.009-0.005 0.020-0.008 0.031-0.008 0.023 0 0.044 0.013 0.055 0.032l0 0c0.006 0.009 0.009 0.020 0.009 0.032 0 0.023-0.013 0.043-0.031 0.054l-0 0-12.45 7.114c-0.009 0.005-0.019 0.008-0.030 0.009h-0zM32.193 29.57c-0.012-0-0.022-0.004-0.032-0.009l0 0-12.449-7.114c-0.019-0.011-0.032-0.031-0.032-0.055 0-0.011 0.003-0.022 0.008-0.031l-0 0c0.011-0.019 0.032-0.032 0.055-0.032 0.011 0 0.022 0.003 0.031 0.008l-0-0 12.449 7.114c0.019 0.011 0.032 0.031 0.032 0.055 0 0.011-0.003 0.022-0.008 0.031l0-0c-0.011 0.020-0.031 0.033-0.054 0.033v0z"></path>
<path fill="#fff" d="M11.468 22.128s0.551 1.433 0.68 1.511c0.13 0.078 1.664 0.705 1.554 0.998s-0.8-0.064-0.8-0.064 0.994 1.149 0.732 1.352c-0.262 0.203-1.144 0.614-1.498 0.447s-2.12-2.353-2.494-3.302z"></path>
<path fill="#231f20" d="M12.35 26.478c-0.005 0-0.011 0-0.017 0-0.080 0-0.157-0.017-0.226-0.047l0.004 0.001c-0.378-0.18-2.155-2.392-2.527-3.336-0.003-0.007-0.004-0.015-0.004-0.023 0-0.035 0.028-0.063 0.063-0.063 0.027 0 0.050 0.017 0.059 0.040l0 0c0.378 0.968 2.155 3.122 2.461 3.273s1.167-0.232 1.434-0.439c0.011-0.010 0.018-0.025 0.019-0.041v-0c0.024-0.252-0.542-0.965-0.756-1.22-0.010-0.011-0.016-0.026-0.016-0.041 0-0.035 0.028-0.063 0.063-0.063 0.011 0 0.021 0.003 0.030 0.008l-0-0c0.126 0.066 0.487 0.222 0.648 0.16 0.030-0.010 0.053-0.033 0.064-0.062l0-0.001c0.030-0.082-0.169-0.287-1.292-0.807-0.136-0.063-0.208-0.097-0.237-0.116-0.136-0.087-0.575-1.205-0.706-1.545-0.003-0.007-0.005-0.016-0.005-0.025 0-0.035 0.028-0.063 0.063-0.063 0.028 0 0.051 0.018 0.059 0.042l0 0c0.262 0.681 0.58 1.423 0.658 1.486 0.021 0.014 0.113 0.057 0.22 0.106 0.905 0.418 1.447 0.726 1.357 0.966-0.023 0.064-0.074 0.114-0.137 0.137-0.049 0.010-0.105 0.016-0.163 0.016-0.124 0-0.241-0.027-0.346-0.076l0.005 0.002c0.243 0.304 0.645 0.848 0.62 1.108-0.004 0.051-0.029 0.096-0.066 0.126l-0 0c-0.208 0.157-0.878 0.497-1.33 0.497z"></path>
<path fill="#7c5dfa" d="M13.831 11.080c-3.241 2.080-7.183 5.14-7.516 5.855-0.532 1.133 3.446 6.831 3.446 6.831l2.154-1.365-1.968-4.271 3.882-2.637z"></path>
<path fill="#231f20" d="M11.342 17.249c-0 0-0.001 0-0.002 0-0.019 0-0.036-0.009-0.046-0.024l-0-0c-0.006-0.009-0.010-0.021-0.010-0.033 0-0.019 0.009-0.037 0.024-0.047l0-0 4.358-3.048c0.009-0.007 0.021-0.011 0.034-0.011 0.020 0 0.037 0.010 0.047 0.025l0 0c0.006 0.009 0.010 0.020 0.010 0.033 0 0.020-0.010 0.037-0.025 0.048l-0 0-4.357 3.048c-0.009 0.006-0.019 0.010-0.031 0.010-0.001 0-0.001 0-0.002-0h0zM30.277 25.886l5.282-3.229-4.475 1.862z"></path>
<path fill="#231f20" d="M30.277 25.949c-0.017-0-0.033-0.007-0.044-0.019l-0-0c-0.012-0.011-0.019-0.027-0.019-0.045 0-0.012 0.003-0.023 0.009-0.032l-0 0 0.806-1.366c0.006-0.012 0.017-0.021 0.029-0.026l0-0 4.48-1.862c0.007-0.003 0.015-0.005 0.023-0.005 0.035 0 0.063 0.028 0.063 0.063 0 0.022-0.012 0.042-0.029 0.053l-0 0-5.285 3.224c-0.009 0.007-0.020 0.012-0.032 0.014l-0 0zM31.127 24.564l-0.667 1.133 4.372-2.673-3.705 1.54z"></path>
<path fill="#fff" d="M31.084 24.519l1.727 0.883 2.749-2.744z"></path>
<path fill="#231f20" d="M32.811 25.458c-0 0-0.001 0-0.001 0-0.009 0-0.018-0.002-0.025-0.007l0 0-1.727-0.881c-0.019-0.009-0.032-0.028-0.032-0.050 0-0.001 0-0.002 0-0.003v0c0.001-0.023 0.015-0.042 0.035-0.052l4.478-1.862c0.006-0.003 0.014-0.004 0.021-0.004 0.020 0 0.037 0.010 0.048 0.025l0 0c0.006 0.009 0.010 0.020 0.010 0.032 0 0.016-0.007 0.030-0.017 0.040l-0 0-2.749 2.744c-0.010 0.010-0.023 0.016-0.038 0.016-0.001 0-0.002-0-0.003-0h0zM31.22 24.526l1.579 0.806 2.513-2.509-4.092 1.703z"></path>
<path fill="#fff" d="M35.559 22.657l-5.686 1.357-1.293-0.739z"></path>
<path fill="#231f20" d="M29.868 24.071c-0 0-0 0-0 0-0.010 0-0.020-0.003-0.028-0.008l0 0-1.294-0.738c-0.017-0.010-0.028-0.029-0.028-0.050 0-0.030 0.023-0.055 0.052-0.058l0-0 6.979-0.618c0.001-0 0.003-0 0.005-0 0.029 0 0.052 0.021 0.057 0.048l0 0c0.001 0.003 0.001 0.006 0.001 0.009 0 0.027-0.018 0.050-0.043 0.056l-0 0-5.7 1.357zM28.763 23.316l1.114 0.636 4.906-1.163-6.020 0.527z"></path>
<path fill="#fff" d="M29.873 24.014l0.404 1.872 0.807-1.367 4.475-1.862z"></path>
<path fill="#231f20" d="M30.277 25.944h-0.009c-0.024-0.004-0.042-0.021-0.048-0.044l-0-0-0.403-1.873c-0.001-0.004-0.001-0.008-0.001-0.013 0-0.027 0.019-0.049 0.044-0.055l0-0 5.686-1.356c0.004-0.001 0.009-0.002 0.015-0.002 0.031 0 0.057 0.026 0.057 0.057 0 0.024-0.015 0.045-0.036 0.053l-0 0-4.454 1.854-0.796 1.35c-0.010 0.018-0.028 0.029-0.050 0.029-0.002 0-0.003-0-0.005-0h0zM29.941 24.056l0.362 1.673 0.731-1.24c0.007-0.010 0.016-0.019 0.027-0.024l0-0 3.814-1.586-4.934 1.177z"></path>
<path fill="#d1d3d4" d="M29.112 26.147c-0.034-0.001-0.061-0.029-0.061-0.063 0-0.022 0.011-0.041 0.028-0.053l0-0 0.21-0.135c0.009-0.005 0.019-0.008 0.030-0.008 0.035 0 0.063 0.028 0.063 0.063 0 0.020-0.009 0.038-0.024 0.050l-0 0-0.213 0.136c-0.010 0.006-0.021 0.009-0.034 0.009-0 0-0 0-0 0h0zM10.034 31.915c-0.034-0.001-0.062-0.028-0.063-0.063v-0c0-0.034 0.028-0.062 0.062-0.063l0.3-0.006 0.203-0.006c0 0 0 0 0 0 0.034 0 0.063 0.027 0.065 0.060v0c0 0.001 0 0.002 0 0.003 0 0.034-0.028 0.062-0.062 0.063h-0l-0.203 0.006-0.303 0.006zM9.53 31.915c-0.172 0-0.34-0.007-0.504-0.014-0.034-0.002-0.060-0.030-0.060-0.064 0-0 0-0.001 0-0.001v0c0.001-0.034 0.029-0.060 0.063-0.060 0.001 0 0.002 0 0.003 0h-0c0.164 0.006 0.331 0.011 0.504 0.014 0.035 0 0.063 0.028 0.063 0.063v0c-0.001 0.035-0.029 0.063-0.064 0.063-0.001 0-0.002-0-0.003-0h-0.001zM11.042 31.881c-0 0-0 0-0 0-0.033 0-0.060-0.026-0.062-0.059v-0c-0-0.001-0-0.002-0-0.004 0-0.033 0.026-0.061 0.059-0.063h0c0.228-0.010 0.403-0.021 0.577-0.033l-0.073 0.004c0.002-0 0.003-0 0.005-0 0.033 0 0.060 0.026 0.062 0.059v0c0 0.002 0 0.003 0 0.005 0 0.033-0.026 0.060-0.058 0.061h-0c-0.168 0.011-0.335 0.021-0.504 0.029h-0.006zM8.528 31.872c-0.226-0.016-0.4-0.032-0.573-0.051l0.068 0.006c-0.032-0.004-0.056-0.030-0.056-0.063 0-0.002 0-0.005 0-0.007l-0 0c0.002-0.031 0.028-0.056 0.060-0.056 0.003 0 0.006 0 0.009 0.001l-0-0c0.163 0.016 0.329 0.032 0.504 0.044 0.001-0 0.003-0 0.005-0 0.035 0 0.063 0.028 0.063 0.063s-0.028 0.063-0.063 0.063c-0.002 0-0.003-0-0.005-0h-0.014zM12.048 31.816c-0.001 0-0.003 0-0.005 0-0.035 0-0.063-0.028-0.063-0.063s0.028-0.063 0.063-0.063c0.002 0 0.003 0 0.005 0h-0c0.168-0.014 0.334-0.029 0.504-0.045 0.001-0 0.003-0 0.004-0 0.033 0 0.060 0.025 0.065 0.056l0 0c0 0.002 0 0.004 0 0.007 0 0.033-0.025 0.060-0.057 0.063l-0 0c-0.168 0.016-0.336 0.031-0.504 0.045h-0.013zM7.526 31.764h-0.009c-0.169-0.025-0.336-0.053-0.504-0.083-0.030-0.006-0.052-0.032-0.052-0.063 0-0.035 0.029-0.064 0.064-0.064 0.004 0 0.008 0 0.012 0.001l-0-0c0.16 0.030 0.326 0.058 0.494 0.082 0.031 0.005 0.054 0.031 0.054 0.062 0 0.003-0 0.007-0.001 0.010l0-0c-0.004 0.030-0.029 0.054-0.060 0.055h0.002zM13.051 31.719c-0.003 0-0.006 0.001-0.009 0.001-0.035 0-0.063-0.028-0.063-0.063s0.028-0.063 0.063-0.063c0 0 0.001 0 0.001 0h-0c0.168-0.019 0.336-0.039 0.504-0.060 0.003-0.001 0.007-0.001 0.010-0.001 0.035 0 0.064 0.028 0.064 0.064 0 0.033-0.025 0.060-0.057 0.063l-0 0-0.513 0.060zM14.051 31.593c-0.032-0-0.058-0.023-0.063-0.054l-0-0c-0-0.003-0.001-0.006-0.001-0.009 0-0.032 0.024-0.058 0.055-0.062l0-0 0.496-0.074c0.003-0.001 0.007-0.001 0.011-0.001 0.031 0 0.056 0.023 0.061 0.052l0 0c0.001 0.003 0.001 0.007 0.001 0.011 0 0.031-0.023 0.057-0.052 0.062l-0 0-0.504 0.074-0.004 0.001zM6.538 31.58h-0.015c-0.245-0.056-0.409-0.099-0.572-0.146l0.082 0.020c-0.026-0.008-0.045-0.033-0.045-0.061 0-0.006 0.001-0.012 0.002-0.017l-0 0c0.008-0.026 0.032-0.045 0.060-0.045 0.006 0 0.012 0.001 0.018 0.003l-0-0c0.156 0.044 0.319 0.087 0.484 0.126 0.028 0.006 0.049 0.031 0.049 0.060 0 0.005-0.001 0.011-0.002 0.016l0-0c-0.008 0.026-0.032 0.044-0.060 0.044-0.001 0-0.002-0-0.003-0h0l0.003 0.001zM15.045 31.436c-0 0-0.001 0-0.001 0-0.030 0-0.056-0.022-0.061-0.051l-0-0c-0.001-0.003-0.001-0.006-0.001-0.010 0-0.031 0.022-0.057 0.052-0.063l0-0 0.495-0.088c0.004-0.001 0.008-0.001 0.012-0.001 0.030 0 0.056 0.022 0.061 0.051l0 0c0.001 0.003 0.001 0.007 0.001 0.011 0 0.031-0.022 0.056-0.051 0.062l-0 0-0.497 0.090h-0.011zM5.569 31.299c-0.003 0.001-0.007 0.001-0.010 0.001s-0.007-0-0.011-0.001l0 0c-0.218-0.076-0.374-0.137-0.529-0.203l0.055 0.021c-0.021-0.011-0.035-0.032-0.035-0.056 0-0.035 0.028-0.063 0.063-0.063 0.007 0 0.015 0.001 0.021 0.004l-0-0c0.15 0.063 0.308 0.126 0.466 0.18 0.032 0.003 0.058 0.031 0.058 0.064 0 0.035-0.029 0.064-0.064 0.064-0.005 0-0.010-0.001-0.015-0.002l0 0v-0.008zM16.029 31.251c-0.030-0-0.055-0.022-0.062-0.050l-0-0c-0.001-0.004-0.001-0.008-0.001-0.013 0-0.030 0.021-0.056 0.050-0.062l0-0 0.493-0.103c0.004-0.001 0.008-0.001 0.013-0.001 0.030 0 0.056 0.021 0.062 0.050l0 0c0.001 0.004 0.002 0.009 0.002 0.014 0 0.030-0.021 0.055-0.049 0.060l-0 0-0.494 0.103-0.013 0.001zM17.015 31.039c-0.002 0-0.004 0-0.006 0-0.035 0-0.063-0.028-0.063-0.063 0-0.032 0.024-0.058 0.055-0.063l0-0c0.164-0.038 0.326-0.076 0.489-0.116 0.034-0.008 0.068 0.013 0.076 0.047 0.001 0.005 0.002 0.010 0.002 0.016 0 0.030-0.020 0.054-0.048 0.061l-0 0c-0.163 0.039-0.325 0.078-0.49 0.115l-0.014 0.004zM4.64 30.904c-0.011-0-0.021-0.003-0.029-0.008l0 0c-0.18-0.092-0.324-0.175-0.465-0.265l0.022 0.013c-0.018-0.011-0.030-0.031-0.030-0.053 0-0.012 0.004-0.024 0.010-0.034l-0 0c0.011-0.018 0.031-0.030 0.053-0.030 0.013 0 0.024 0.004 0.034 0.010l-0-0c0.111 0.070 0.253 0.151 0.398 0.226l0.036 0.017c0.031 0.006 0.054 0.032 0.054 0.064 0 0.036-0.029 0.065-0.065 0.065-0.006 0-0.013-0.001-0.018-0.003l0 0v-0.002zM17.999 30.801c-0.003 0.001-0.007 0.001-0.011 0.001-0.035 0-0.064-0.028-0.064-0.064 0-0.034 0.026-0.061 0.059-0.063h0l0.486-0.126c0.004-0.001 0.009-0.002 0.014-0.002 0.036 0 0.065 0.029 0.065 0.065 0 0.029-0.019 0.054-0.046 0.062l-0 0c-0.161 0.044-0.324 0.086-0.488 0.126-0.003 0.001-0.006 0.001-0.009 0.001s-0.007-0-0.010-0.001l0 0h0.003zM18.972 30.538c-0 0-0.001 0-0.001 0-0.028 0-0.052-0.019-0.059-0.045l-0-0c-0.001-0.005-0.002-0.011-0.002-0.017 0-0.029 0.019-0.054 0.046-0.061l0-0 0.483-0.14c0.005-0.002 0.012-0.003 0.018-0.003 0.028 0 0.052 0.018 0.060 0.044l0 0c0.002 0.006 0.003 0.012 0.003 0.018 0 0.028-0.019 0.052-0.045 0.059l-0 0c-0.16 0.048-0.321 0.096-0.484 0.141-0.005 0.002-0.010 0.003-0.015 0.003-0.002 0-0.003-0-0.005-0l0 0h0.003zM3.79 30.376c-0 0-0 0-0 0-0.014 0-0.027-0.005-0.038-0.013l0 0c-0.147-0.109-0.275-0.215-0.398-0.326l0.004 0.004c-0.010-0.011-0.016-0.026-0.016-0.042 0-0.035 0.028-0.063 0.063-0.063 0.016 0 0.030 0.006 0.041 0.015l-0-0c0.123 0.111 0.251 0.216 0.384 0.315 0.028 0.021 0.033 0.060 0.012 0.088-0.012 0.013-0.029 0.022-0.048 0.022-0.002 0-0.004-0-0.006-0l0 0zM19.935 30.25c-0 0-0.001 0-0.001 0-0.028 0-0.051-0.018-0.058-0.044l-0-0c-0.002-0.006-0.003-0.012-0.003-0.019 0-0.028 0.019-0.052 0.044-0.060l0-0c0.161-0.049 0.32-0.101 0.479-0.151 0.006-0.002 0.013-0.003 0.020-0.003 0.028 0 0.051 0.018 0.059 0.043l0 0c0.002 0.006 0.003 0.012 0.003 0.019 0 0.028-0.018 0.051-0.043 0.060l-0 0c-0.159 0.052-0.319 0.102-0.481 0.152-0.006 0.002-0.012 0.004-0.019 0.004-0 0-0 0-0 0h0v-0.001zM20.894 29.939c-0.004 0.001-0.009 0.001-0.013 0.001-0.035 0-0.064-0.029-0.064-0.064 0-0.033 0.025-0.060 0.057-0.063l0-0c0.16-0.054 0.319-0.108 0.475-0.164 0.033-0.011 0.069 0.006 0.081 0.039 0.002 0.006 0.004 0.014 0.004 0.021 0 0.027-0.017 0.050-0.041 0.058l-0 0c-0.158 0.055-0.316 0.111-0.478 0.165l-0.020 0.006zM3.047 29.7c-0.019-0-0.036-0.008-0.048-0.021l-0-0c-0.107-0.119-0.211-0.249-0.308-0.384l-0.009-0.014c-0.009-0.011-0.014-0.024-0.014-0.039 0-0.035 0.028-0.063 0.063-0.063 0.022 0 0.042 0.012 0.053 0.029l0 0c0.103 0.144 0.205 0.27 0.313 0.39l-0.003-0.004c0.011 0.012 0.018 0.027 0.018 0.045s-0.007 0.033-0.018 0.045v0c-0.011 0.011-0.027 0.018-0.044 0.018-0.001 0-0.002-0-0.003-0h0v-0.001zM21.844 29.607c-0.027-0.001-0.050-0.018-0.059-0.041l-0-0c-0.002-0.006-0.004-0.014-0.004-0.022 0-0.027 0.017-0.050 0.041-0.059l0-0c0.16-0.058 0.316-0.117 0.473-0.175 0.004-0.001 0.009-0.002 0.014-0.002 0.035 0 0.063 0.028 0.063 0.063 0 0.024-0.013 0.045-0.033 0.055l-0 0c-0.156 0.059-0.314 0.117-0.474 0.175-0.006 0.004-0.013 0.006-0.021 0.006h-0v-0.001zM22.787 29.25c-0.003 0-0.006 0.001-0.010 0.001-0.035 0-0.064-0.029-0.064-0.064 0-0.031 0.022-0.056 0.051-0.063l0-0 0.468-0.185c0.032-0.013 0.069 0.002 0.082 0.034 0.003 0.007 0.005 0.016 0.005 0.024 0 0.026-0.016 0.049-0.038 0.059l-0 0-0.469 0.191c-0.007 0.002-0.015 0.004-0.024 0.004h-0v-0.001zM2.465 28.883c-0 0-0.001 0-0.001 0-0.023 0-0.044-0.013-0.054-0.032l-0-0c-0.071-0.124-0.144-0.275-0.21-0.431l-0.011-0.029c-0.003-0.007-0.005-0.015-0.005-0.024 0-0.035 0.028-0.063 0.063-0.063 0.026 0 0.049 0.016 0.058 0.039l0 0c0.062 0.154 0.133 0.303 0.214 0.447 0.016 0.031 0.005 0.068-0.025 0.086-0.009 0.005-0.019 0.007-0.030 0.008h-0zM23.722 28.874c-0 0-0.001 0-0.001 0-0.026 0-0.048-0.016-0.056-0.039l-0-0c-0.003-0.007-0.005-0.015-0.005-0.024 0-0.026 0.015-0.048 0.037-0.057l0-0c0.157-0.066 0.312-0.126 0.464-0.196 0.007-0.003 0.014-0.004 0.022-0.004 0.035 0 0.063 0.028 0.063 0.063 0 0.025-0.014 0.046-0.035 0.056l-0 0-0.465 0.196c-0.007 0.003-0.014 0.005-0.023 0.005-0 0-0.001 0-0.001-0h0zM24.647 28.475c-0.025-0-0.047-0.015-0.058-0.036l-0-0c-0.004-0.008-0.006-0.017-0.006-0.026 0-0.026 0.016-0.048 0.038-0.057l0-0c0.156-0.070 0.309-0.138 0.458-0.208 0.007-0.003 0.015-0.004 0.023-0.004 0.035 0 0.063 0.028 0.063 0.063 0 0.024-0.013 0.045-0.033 0.055l-0 0c-0.15 0.069-0.302 0.139-0.46 0.208-0.007 0.003-0.015 0.005-0.023 0.005-0.001 0-0.001 0-0.002-0h0zM25.563 28.054c-0 0-0.001 0-0.002 0-0.024 0-0.045-0.014-0.055-0.035l-0-0c-0.004-0.008-0.006-0.018-0.006-0.028 0-0.025 0.014-0.046 0.035-0.056l0-0c0.156-0.073 0.308-0.146 0.454-0.218 0.008-0.003 0.016-0.005 0.025-0.005 0.035 0 0.063 0.028 0.063 0.063 0 0.024-0.013 0.045-0.033 0.055l-0 0-0.455 0.219c-0.007 0.003-0.016 0.005-0.025 0.005-0 0-0.001 0-0.001 0h0zM2.084 27.95c-0.029-0-0.053-0.020-0.060-0.046l-0-0c-0.039-0.132-0.078-0.299-0.107-0.47l-0.004-0.027c-0-0.003-0.001-0.007-0.001-0.010 0-0.035 0.029-0.064 0.064-0.064 0.032 0 0.058 0.023 0.063 0.053l0 0c0.025 0.165 0.060 0.328 0.103 0.488 0.002 0.005 0.003 0.011 0.003 0.018 0 0.029-0.019 0.053-0.045 0.060l-0 0-0.015-0.003zM26.465 27.614c-0 0-0.001 0-0.001 0-0.025 0-0.046-0.014-0.056-0.035l-0-0c-0.004-0.008-0.007-0.018-0.007-0.028 0-0.024 0.014-0.046 0.034-0.056l0-0c0.155-0.078 0.305-0.154 0.449-0.229 0.007-0.003 0.016-0.005 0.025-0.005 0.035 0 0.063 0.028 0.063 0.063 0 0.023-0.012 0.043-0.030 0.054l-0 0c-0.144 0.074-0.294 0.151-0.45 0.229-0.008 0.005-0.017 0.007-0.028 0.008h-0zM27.36 27.149c-0 0-0.001 0-0.001 0-0.023 0-0.044-0.013-0.054-0.032l-0-0c-0.005-0.009-0.007-0.019-0.007-0.030 0-0.024 0.013-0.045 0.032-0.056l0-0c0.156-0.083 0.304-0.164 0.442-0.239 0.010-0.007 0.023-0.012 0.037-0.012 0.035 0 0.063 0.028 0.063 0.063 0 0.026-0.016 0.049-0.039 0.058l-0 0c-0.139 0.077-0.286 0.157-0.444 0.242-0.007 0.004-0.016 0.006-0.025 0.006h-0.004zM1.916 26.964c-0.033-0-0.061-0.026-0.063-0.059v-0c0-0.098-0.008-0.199-0.008-0.298v-0.21c0.001-0.034 0.028-0.061 0.062-0.061 0.001 0 0.003 0 0.004 0h-0c0.034 0.001 0.061 0.029 0.061 0.063 0 0.001-0 0.002-0 0.003v-0 0.205c0 0.097 0 0.195 0.008 0.291 0 0.001 0 0.003 0 0.004 0 0.033-0.026 0.061-0.059 0.063h-0.004zM28.242 26.662c-0.034-0-0.062-0.029-0.062-0.063 0-0.023 0.012-0.043 0.030-0.054l0-0c0.163-0.093 0.309-0.178 0.435-0.252 0.009-0.006 0.021-0.009 0.033-0.009 0.023 0 0.043 0.012 0.054 0.030l0 0c0.018 0.030 0.008 0.068-0.021 0.087-0.076 0.049-0.219 0.133-0.364 0.214l-0.074 0.038c-0.008 0.005-0.017 0.008-0.028 0.009l-0 0h-0.004zM1.96 25.961h-0.009c-0.031-0.005-0.055-0.031-0.055-0.063 0-0.003 0-0.006 0.001-0.009l-0 0c0.023-0.165 0.052-0.334 0.090-0.504 0.008-0.034 0.042-0.055 0.076-0.048 0.029 0.006 0.050 0.032 0.050 0.062 0 0.005-0.001 0.010-0.002 0.015l0-0c-0.031 0.126-0.062 0.292-0.085 0.461l-0.003 0.029c-0.003 0.032-0.029 0.057-0.062 0.058h-0zM2.179 24.98c-0.003 0.001-0.006 0.001-0.009 0.001s-0.007-0-0.010-0.001l0 0c-0.026-0.008-0.045-0.032-0.045-0.060 0-0.007 0.001-0.013 0.003-0.019l-0 0c0.049-0.159 0.107-0.32 0.172-0.478 0.011-0.020 0.032-0.033 0.055-0.033 0.035 0 0.063 0.028 0.063 0.063 0 0.006-0.001 0.013-0.003 0.018l0-0c-0.062 0.155-0.118 0.312-0.168 0.468-0.008 0.024-0.031 0.042-0.057 0.042-0.001 0-0.001 0-0.002-0h0zM2.557 24.048c-0.005 0.002-0.011 0.002-0.017 0.002-0.007 0-0.014-0.001-0.020-0.004l0 0c-0.021-0.010-0.035-0.032-0.035-0.057 0-0.010 0.002-0.020 0.007-0.028l-0 0c0.074-0.15 0.156-0.3 0.243-0.446 0.011-0.019 0.031-0.032 0.054-0.032 0.012 0 0.023 0.003 0.032 0.009l-0-0c0.030 0.018 0.040 0.057 0.023 0.087-0.086 0.142-0.165 0.29-0.238 0.438-0.011 0.017-0.030 0.027-0.051 0.028h-0l0.004 0.001zM3.070 23.182c-0.001 0-0.001 0-0.002 0-0.017 0-0.032-0.006-0.043-0.016l0 0c-0.016-0.011-0.027-0.030-0.027-0.051 0-0.014 0.004-0.026 0.012-0.036l-0 0c0.11-0.158 0.21-0.291 0.315-0.419l-0.010 0.012c0.012-0.014 0.029-0.024 0.049-0.024 0.035 0 0.063 0.028 0.063 0.063 0 0.015-0.005 0.029-0.014 0.040l0-0c-0.096 0.116-0.194 0.246-0.287 0.38l-0.013 0.019c-0.010 0.017-0.027 0.029-0.046 0.031l-0 0h0.004zM3.7 22.402c-0.001 0-0.001 0-0.002 0-0.034 0-0.062-0.028-0.062-0.062 0-0.017 0.007-0.033 0.018-0.044v0c0.116-0.124 0.235-0.24 0.359-0.35l0.005-0.005c0.011-0.011 0.027-0.019 0.044-0.019s0.033 0.007 0.044 0.019v0c0.012 0.011 0.019 0.027 0.019 0.045s-0.007 0.033-0.019 0.045v0c-0.127 0.113-0.243 0.227-0.354 0.346l-0.003 0.003c-0.012 0.014-0.029 0.022-0.049 0.022-0.001 0-0.001 0-0.002-0h0zM4.454 21.723c-0 0-0 0-0 0-0.020 0-0.037-0.009-0.049-0.024l-0-0c-0.008-0.011-0.013-0.024-0.013-0.039 0-0.020 0.009-0.038 0.024-0.050l0-0c0.068-0.050 0.136-0.101 0.205-0.15 0.010-0.008 0.024-0.013 0.038-0.013 0.035 0 0.063 0.028 0.063 0.063 0 0.022-0.012 0.042-0.029 0.053l-0 0c-0.068 0.048-0.135 0.097-0.2 0.147-0.010 0.008-0.024 0.013-0.038 0.013-0 0-0.001 0-0.001 0h0zM32.716 14.201c-0 0-0.001 0-0.002 0-0.016 0-0.031-0.007-0.041-0.018l-0-0c-0.011-0.011-0.019-0.027-0.019-0.044s0.007-0.033 0.018-0.044v0s0.062-0.066 0.169-0.184c0.011-0.017 0.031-0.028 0.052-0.028 0.035 0 0.063 0.028 0.063 0.063 0 0.019-0.008 0.036-0.022 0.048l-0 0c-0.108 0.126-0.171 0.188-0.171 0.188-0.011 0.012-0.027 0.019-0.045 0.019-0.001 0-0.002-0-0.004-0h0zM33.22 13.633c-0.016-0-0.030-0.006-0.042-0.015l0 0c-0.011-0.011-0.019-0.027-0.019-0.044s0.007-0.033 0.018-0.044v0c0.097-0.116 0.205-0.252 0.321-0.392 0.012-0.015 0.029-0.024 0.049-0.024 0.032 0 0.059 0.024 0.063 0.056l0 0c0 0.002 0 0.004 0 0.007 0 0.015-0.005 0.029-0.014 0.039l0-0c-0.128 0.161-0.234 0.289-0.342 0.416l0.018-0.022c-0.011 0.014-0.029 0.023-0.048 0.023-0.002 0-0.004-0-0.006-0l0 0zM33.85 12.84c-0.014-0.001-0.027-0.005-0.038-0.013l0 0c-0.015-0.012-0.024-0.030-0.024-0.050 0-0.015 0.005-0.028 0.013-0.039l-0 0c0.074-0.095 0.173-0.228 0.269-0.362l0.031-0.045c0.012-0.015 0.030-0.024 0.050-0.024 0.035 0 0.063 0.028 0.063 0.063 0 0.012-0.004 0.024-0.010 0.034l0-0c-0.103 0.144-0.204 0.281-0.304 0.41-0.010 0.015-0.026 0.026-0.045 0.028l-0 0-0.005-0.002zM34.443 12.013c-0.001 0-0.001 0-0.002 0-0.034 0-0.062-0.028-0.062-0.062 0-0.014 0.004-0.026 0.012-0.037l-0 0c0.061-0.086 0.152-0.225 0.241-0.365l0.035-0.060c0.012-0.018 0.031-0.029 0.054-0.029 0.012 0 0.024 0.003 0.033 0.009l-0-0c0.029 0.019 0.038 0.058 0.019 0.087-0.126 0.203-0.217 0.343-0.311 0.481l0.034-0.053c-0.011 0.016-0.028 0.026-0.048 0.028h-0.005zM34.982 11.152c-0 0-0.001 0-0.001 0-0.011 0-0.022-0.003-0.031-0.009l0 0c-0.019-0.011-0.032-0.031-0.032-0.054 0-0.012 0.003-0.023 0.009-0.032l-0 0c0.057-0.094 0.138-0.239 0.215-0.386l0.027-0.057c0.011-0.019 0.032-0.032 0.055-0.032 0.035 0 0.063 0.028 0.063 0.063 0 0.010-0.002 0.019-0.006 0.027l0-0c-0.106 0.207-0.188 0.354-0.273 0.498l0.027-0.050c-0.010 0.018-0.028 0.030-0.049 0.031l-0 0h-0.005zM35.45 10.249c-0.004 0.001-0.009 0.001-0.013 0.001s-0.009-0.001-0.014-0.001l0 0c-0.022-0.010-0.036-0.031-0.036-0.056 0-0.010 0.002-0.019 0.006-0.027l-0 0c0.072-0.157 0.139-0.313 0.197-0.464 0.009-0.024 0.032-0.041 0.059-0.041 0.008 0 0.016 0.002 0.023 0.004l-0-0c0.032 0.013 0.049 0.049 0.036 0.082-0.060 0.154-0.126 0.312-0.2 0.471-0.011 0.018-0.030 0.030-0.053 0.031h-0.005zM35.816 9.303h-0.019c-0.026-0.009-0.044-0.033-0.044-0.061 0-0.007 0.001-0.013 0.003-0.019l-0 0c0.040-0.121 0.083-0.284 0.119-0.449l0.007-0.037c0.006-0.029 0.032-0.050 0.062-0.050 0.035 0 0.063 0.028 0.063 0.063 0 0.005-0.001 0.009-0.001 0.014l0-0c-0.052 0.239-0.096 0.408-0.143 0.575l0.017-0.071c-0.011 0.021-0.032 0.035-0.057 0.035-0 0-0.001 0-0.001 0h-0.005zM36.028 8.311h-0.006c-0.032-0.003-0.057-0.030-0.057-0.063 0-0.002 0-0.004 0-0.005l-0 0c0-0.053 0.010-0.104 0.013-0.157 0-0.117 0.011-0.233 0.015-0.345 0-0 0-0 0-0 0-0.034 0.028-0.062 0.062-0.062 0.001 0 0.002 0 0.003 0h-0c0.034 0.001 0.062 0.030 0.062 0.064 0 0 0 0 0 0v0c0 0.115-0.009 0.23-0.015 0.35 0 0.054-0.008 0.107-0.013 0.161-0.004 0.032-0.030 0.056-0.063 0.057h-0zM36.057 7.296c0 0 0 0-0 0-0.034 0-0.062-0.027-0.063-0.062v-0c0-0.171-0.012-0.34-0.025-0.504-0-0.002-0-0.003-0-0.005 0-0.033 0.026-0.060 0.058-0.061h0c0.002-0 0.003-0 0.005-0 0.033 0 0.060 0.026 0.063 0.058v0c0.013 0.165 0.021 0.336 0.025 0.51 0 0.034-0.027 0.063-0.062 0.064h-0.001zM35.975 6.289c-0.032-0-0.058-0.023-0.063-0.054l-0-0c-0.029-0.202-0.061-0.369-0.1-0.534l0.008 0.040c-0.001-0.004-0.002-0.009-0.002-0.014 0-0.036 0.029-0.065 0.065-0.065 0.031 0 0.056 0.021 0.063 0.050l0 0c0.036 0.161 0.068 0.331 0.093 0.504 0 0.003 0.001 0.006 0.001 0.009 0 0.032-0.023 0.058-0.053 0.063l-0 0h-0.012zM35.747 5.302c-0 0-0.001 0-0.001 0-0.028 0-0.051-0.018-0.060-0.042l-0-0c-0.062-0.19-0.123-0.344-0.192-0.494l0.012 0.028c-0.004-0.008-0.006-0.017-0.006-0.026 0-0.035 0.028-0.063 0.063-0.063 0.025 0 0.047 0.015 0.057 0.036l0 0c0.071 0.156 0.132 0.316 0.185 0.48 0.002 0.006 0.003 0.013 0.003 0.020 0 0.027-0.017 0.051-0.042 0.059l-0 0c-0.002 0-0.004 0-0.006 0-0.005 0-0.010-0.001-0.014-0.002l0 0v0.004zM35.326 4.382c-0 0-0 0-0 0-0.022 0-0.042-0.011-0.054-0.029l-0-0c-0.095-0.154-0.19-0.286-0.294-0.411l0.005 0.006c-0.009-0.011-0.014-0.025-0.014-0.040 0-0.020 0.009-0.037 0.023-0.049l0-0c0.011-0.009 0.025-0.015 0.040-0.015 0.019 0 0.036 0.009 0.048 0.022l0 0c0.103 0.122 0.202 0.258 0.291 0.4l0.009 0.015c0.006 0.010 0.010 0.021 0.010 0.034 0 0.034-0.028 0.062-0.062 0.062-0.001 0-0.001 0-0.002-0h0v0.004zM34.678 3.605c-0.016-0-0.030-0.006-0.042-0.015l0 0c-0.118-0.105-0.247-0.205-0.383-0.294l-0.012-0.008c-0.018-0.011-0.030-0.031-0.030-0.054 0-0.035 0.028-0.063 0.063-0.063 0.013 0 0.025 0.004 0.035 0.011l-0-0c0.155 0.101 0.289 0.204 0.416 0.317l-0.004-0.003c0.011 0.012 0.018 0.027 0.018 0.045s-0.007 0.033-0.018 0.045v0c-0.011 0.010-0.026 0.016-0.043 0.016-0 0-0 0-0 0v0 0.004zM33.83 3.055c-0.004 0.001-0.009 0.001-0.013 0.001s-0.009-0-0.014-0.001l0 0c-0.152-0.069-0.308-0.128-0.468-0.176-0.029-0.007-0.050-0.033-0.050-0.064 0-0.036 0.029-0.066 0.066-0.066 0.007 0 0.015 0.001 0.021 0.003l-0-0c0.165 0.049 0.327 0.11 0.484 0.181 0.022 0.010 0.036 0.031 0.036 0.056 0 0.010-0.002 0.019-0.006 0.027l0-0c-0.010 0.020-0.031 0.034-0.055 0.034-0.001 0-0.001 0-0.002-0h0v0.004zM32.86 2.759h-0.011c-0.142-0.026-0.313-0.046-0.487-0.056l-0.011-0.001c-0.033-0.002-0.059-0.029-0.059-0.063 0-0.001 0-0.003 0-0.004v0c0-0 0-0 0-0 0-0.033 0.026-0.059 0.059-0.059 0.003 0 0.005 0 0.008 0.001l-0-0c0.172 0.010 0.342 0.029 0.512 0.058 0.034 0.006 0.057 0.039 0.052 0.073-0.006 0.028-0.031 0.048-0.060 0.048-0.001 0-0.001 0-0.002-0h0v0.004zM31.591 2.722c-0.001 0-0.002 0-0.003 0-0.035 0-0.063-0.028-0.063-0.063 0-0.032 0.024-0.059 0.056-0.063l0-0c0.072-0.012 0.159-0.021 0.247-0.025l0.005-0c0.002-0 0.004-0 0.006-0 0.035 0 0.063 0.028 0.063 0.063s-0.027 0.062-0.062 0.063h-0c-0.152 0.009-0.243 0.023-0.243 0.023l-0.006 0.003z"></path>
<path fill="#fff" d="M0.373 7.742l3.656-2.985c0.070-0.058 0.162-0.093 0.261-0.093 0.128 0 0.243 0.059 0.319 0.151l0.001 0.001 1.477 1.805c0.058 0.071 0.093 0.162 0.093 0.261 0 0.129-0.059 0.243-0.151 0.319l-0.001 0.001-3.656 2.985c-0.070 0.058-0.162 0.093-0.261 0.093-0.128 0-0.243-0.059-0.319-0.151l-0.001-0.001-1.477-1.805c-0.058-0.071-0.093-0.162-0.093-0.261 0-0.129 0.059-0.243 0.151-0.319l0.001-0.001z"></path>
<path fill="#d1d3d4" d="M2.1 10.379h-0.039c-0.102-0.012-0.191-0.063-0.251-0.138l-0.001-0.001-1.6-1.951c-0.055-0.065-0.088-0.15-0.088-0.242 0-0.119 0.055-0.225 0.141-0.295l0.001-0.001 3.8-3.103c0.065-0.055 0.15-0.088 0.242-0.088 0.119 0 0.226 0.055 0.295 0.141l0.001 0.001 1.596 1.95c0.055 0.065 0.088 0.15 0.088 0.242 0 0.119-0.055 0.226-0.142 0.295l-0.001 0.001-3.8 3.102c-0.068 0.056-0.154 0.087-0.242 0.087zM4.304 4.689c-0.062 0-0.118 0.021-0.163 0.057l0.001-0-3.8 3.103c-0.052 0.043-0.084 0.105-0.090 0.172s0.014 0.136 0.057 0.189l1.595 1.949c0.043 0.053 0.105 0.087 0.173 0.093s0.135-0.014 0.188-0.057l3.797-3.103c0.059-0.046 0.096-0.118 0.096-0.198 0-0.062-0.022-0.119-0.060-0.163l0 0-1.596-1.946c-0.047-0.059-0.118-0.097-0.199-0.097-0 0-0 0-0 0h0z"></path>
<path fill="#d1d3d4" d="M0.189 8.059c-0.035-0-0.063-0.028-0.063-0.063v0c-0-0.002-0-0.004-0-0.007 0-0.032 0.025-0.059 0.057-0.061h0l3.167-0.274 0.9-3.046c0.007-0.026 0.031-0.046 0.060-0.046 0.007 0 0.013 0.001 0.019 0.003l-0-0c0.026 0.008 0.044 0.032 0.044 0.060 0 0.006-0.001 0.013-0.003 0.018l0-0-0.91 3.087c-0.007 0.025-0.028 0.043-0.054 0.045l-0 0-3.216 0.283z"></path>
<path fill="#d1d3d4" d="M3.529 7.324c-0.001 0-0.002 0-0.003 0-0.035 0-0.063-0.028-0.063-0.063s0.028-0.063 0.063-0.063c0.001 0 0.002 0 0.003 0h-0l2.679-0.306c0.002-0 0.004-0 0.006-0 0.032 0 0.059 0.024 0.064 0.055l0 0c0 0.002 0 0.005 0 0.008 0 0.032-0.024 0.059-0.056 0.062l-0 0-2.693 0.306zM2.096 10.379c-0.003 0.001-0.006 0.001-0.009 0.001s-0.007-0-0.010-0.001l0 0c-0.026-0.008-0.044-0.031-0.044-0.059 0-0.007 0.001-0.014 0.004-0.021l-0 0 0.833-2.562c0.009-0.027 0.034-0.046 0.063-0.046 0.036 0 0.066 0.030 0.066 0.066 0 0.007-0.001 0.014-0.003 0.020l0-0-0.833 2.562c-0.010 0.024-0.033 0.041-0.060 0.041-0.002 0-0.005-0-0.007-0l0 0z"></path>
<path fill="#fff" d="M34.82 16.769l3.484 1.509c0.118 0.052 0.2 0.168 0.2 0.304 0 0.048-0.010 0.093-0.028 0.134l0.001-0.002-0 0-0.747 1.721c-0.053 0.118-0.169 0.199-0.304 0.199-0.048 0-0.093-0.010-0.134-0.028l0.002 0.001-3.484-1.509c-0.118-0.052-0.199-0.168-0.199-0.304 0-0.048 0.010-0.093 0.028-0.134l-0.001 0.002 0.747-1.721c0.052-0.118 0.169-0.2 0.304-0.2 0.048 0 0.093 0.010 0.134 0.028l-0.002-0.001z"></path>
<path fill="#d1d3d4" d="M37.466 20.719c-0.046-0-0.089-0.010-0.128-0.027l0.002 0.001-3.619-1.569c-0.078-0.033-0.14-0.096-0.171-0.175s-0.032-0.167 0-0.245l0.805-1.857c0.051-0.114 0.164-0.192 0.294-0.192 0.046 0 0.089 0.010 0.129 0.027l-0.002-0.001 3.621 1.567c0.078 0.034 0.138 0.097 0.169 0.174l0.001 0.002c0.016 0.036 0.025 0.078 0.025 0.122s-0.009 0.086-0.025 0.124l0.001-0.002-0.806 1.854c-0.034 0.078-0.096 0.138-0.173 0.169l-0.002 0.001c-0.035 0.015-0.075 0.025-0.118 0.026h-0.001zM34.657 16.779c-0.077 0-0.147 0.046-0.178 0.117l-0.812 1.863c-0.041 0.097 0.004 0.21 0.101 0.252l3.621 1.569c0.048 0.019 0.101 0.019 0.149 0s0.086-0.056 0.106-0.103l0.807-1.858c0.009-0.022 0.015-0.047 0.015-0.074s-0.005-0.052-0.015-0.075l0 0.001c-0.019-0.049-0.056-0.087-0.102-0.107l-0.001-0-3.618-1.568c-0.021-0.010-0.046-0.016-0.072-0.016h-0z"></path>
<path fill="#d1d3d4" d="M35.959 18.979c-0 0-0.001 0-0.001 0-0.022 0-0.041-0.011-0.051-0.029l-0-0-1.386-2.188c-0.006-0.009-0.010-0.021-0.010-0.033 0-0.035 0.028-0.063 0.063-0.063 0.023 0 0.042 0.012 0.053 0.029l0 0 1.358 2.152 2.502-0.48c0.004-0.001 0.009-0.002 0.014-0.002 0.030 0 0.055 0.022 0.061 0.050l0 0c0.001 0.003 0.001 0.007 0.001 0.011 0 0.031-0.022 0.057-0.051 0.063l-0 0-2.552 0.488z"></path>
<path fill="#d1d3d4" d="M37.539 20.707c-0.022-0-0.041-0.011-0.053-0.027l-0-0-1.208-1.794c-0.007-0.010-0.011-0.022-0.011-0.035 0-0.035 0.028-0.063 0.063-0.063 0.004 0 0.009 0 0.013 0.001l-0-0c0.016 0.003 0.031 0.013 0.040 0.027l1.207 1.799c0.019 0.029 0.011 0.068-0.018 0.088-0.007 0.003-0.016 0.005-0.024 0.005-0.003 0-0.007-0-0.010-0.001l0 0zM33.617 19.012c-0 0-0.001 0-0.001 0-0.031 0-0.057-0.023-0.062-0.052l-0-0c-0.001-0.003-0.001-0.006-0.001-0.010 0-0.032 0.023-0.058 0.053-0.062l0-0 2.142-0.35c0.001-0 0.003-0 0.005-0 0.035 0 0.064 0.029 0.064 0.064 0 0.030-0.020 0.055-0.048 0.062l-0 0-2.142 0.35-0.010-0.001z"></path>
<path fill="#fff" d="M10.444 2.036l2.635 0.873c0.097 0.033 0.166 0.123 0.166 0.229 0 0.027-0.005 0.053-0.013 0.078l0.001-0.002-0.432 1.302c-0.033 0.097-0.123 0.166-0.23 0.166-0.027 0-0.053-0.004-0.078-0.013l0.002 0-2.635-0.873c-0.097-0.033-0.166-0.123-0.166-0.229 0-0.027 0.005-0.054 0.013-0.078l-0.001 0.002 0.432-1.302c0.033-0.097 0.123-0.166 0.23-0.166 0.027 0 0.053 0.004 0.078 0.013l-0.002-0.001z"></path>
<path fill="#d1d3d4" d="M12.603 4.758c-0.027 0-0.053-0.004-0.078-0.013l-2.739-0.906c-0.1-0.035-0.171-0.128-0.171-0.239 0-0.028 0.005-0.055 0.013-0.080l-0.001 0.002 0.466-1.405c0.034-0.101 0.129-0.172 0.239-0.172 0.028 0 0.054 0.004 0.079 0.013l-0.002-0 2.739 0.906c0.101 0.035 0.171 0.128 0.171 0.239 0 0.028-0.005 0.055-0.013 0.080l0.001-0.002-0.465 1.405c-0.034 0.101-0.128 0.173-0.239 0.173-0 0-0 0-0 0v0zM12.563 4.626c0.014 0.006 0.031 0.009 0.048 0.009s0.034-0.003 0.049-0.010l-0.001 0c0.030-0.015 0.052-0.041 0.063-0.072l0-0.001 0.468-1.404c0.006-0.014 0.009-0.031 0.009-0.048s-0.003-0.034-0.010-0.049l0 0.001c-0.015-0.029-0.040-0.052-0.071-0.063l-0.001-0-2.739-0.906c-0.012-0.004-0.025-0.006-0.039-0.006-0.021 0-0.040 0.005-0.058 0.014l0.001-0c-0.029 0.015-0.051 0.040-0.062 0.071l-0 0.001-0.466 1.405c-0.006 0.014-0.009 0.031-0.009 0.048s0.003 0.034 0.009 0.049l-0-0.001c0.015 0.029 0.042 0.052 0.073 0.062l2.735 0.9z"></path>
<path fill="#d1d3d4" d="M11.412 3.59c-0.020-0-0.039-0.010-0.050-0.025l-0-0-1.153-1.503c-0.008-0.010-0.012-0.023-0.012-0.037 0-0.035 0.028-0.063 0.063-0.063 0.020 0 0.037 0.009 0.049 0.023l0 0 1.123 1.469 1.78-0.504c0.005-0.002 0.011-0.002 0.017-0.002 0.029 0 0.053 0.019 0.061 0.046l0 0c0.001 0.005 0.002 0.010 0.002 0.016 0 0.029-0.019 0.053-0.046 0.060l-0 0-1.82 0.521-0.013-0.003z"></path>
<path fill="#d1d3d4" d="M12.674 4.746c-0 0-0.001 0-0.001 0-0.020 0-0.037-0.009-0.048-0.024l-0-0-0.996-1.231c-0.009-0.011-0.014-0.025-0.014-0.040 0-0.035 0.028-0.063 0.063-0.063 0.020 0 0.037 0.009 0.049 0.023l0 0 0.996 1.232c0.008 0.011 0.014 0.024 0.014 0.039 0 0.035-0.028 0.063-0.063 0.063v0zM9.704 3.764c-0.001 0-0.003 0-0.004 0-0.035 0-0.064-0.028-0.064-0.064 0-0.031 0.022-0.057 0.052-0.062l0-0 1.535-0.393c0.005-0.001 0.010-0.002 0.016-0.002 0.029 0 0.054 0.020 0.061 0.047l0 0c0.001 0.005 0.002 0.010 0.002 0.016 0 0.029-0.020 0.053-0.047 0.060l-0 0-1.552 0.398z"></path>
</svg>
